<?xml version="1.0" encoding="utf-8"?>
<!-- Generator: Adobe Illustrator 24.1.1, SVG Export Plug-In . SVG Version: 6.00 Build 0)  -->
<svg version="1.1" id="Layer_1" xmlns="http://www.w3.org/2000/svg" xmlns:xlink="http://www.w3.org/1999/xlink" x="0px" y="0px"
	 viewBox="0 0 70.9 70.9" style="enable-background:new 0 0 70.9 70.9;" xml:space="preserve">
<style type="text/css">
	.st0{enable-background:new    ;}
	.st1{clip-path:url(#SVGID_2_);fill:#0061AF;}
	.st2{clip-path:url(#SVGID_2_);fill:#FFFFFF;}
</style>
<g class="st0">
	<g>
		<defs>
			<rect id="SVGID_1_" x="0" y="0" width="70.9" height="71"/>
		</defs>
		<clipPath id="SVGID_2_">
			<use xlink:href="#SVGID_1_"  style="overflow:visible;"/>
		</clipPath>
		<rect x="0" y="0" class="st1" width="70.8" height="71"/>
		<path class="st2" d="M26.3,27.2c-1.3-1.2-3.2-1.8-4.9-1.8c-4.2,0-7.4,3.5-7.4,7.6c0,4.1,3.2,7.6,7.3,7.6c1.8,0,3.6-0.7,5-1.9v2.7
			c-1.4,0.8-3.3,1.3-4.9,1.3c-5.3,0-9.7-4.2-9.7-9.6c0-5.5,4.4-9.8,9.9-9.8c1.6,0,3.3,0.4,4.7,1.3"/>
		<path class="st2" d="M30.4,30.7v6.4c0,1.9,0.5,3.5,2.7,3.5c2.2,0,2.7-1.6,2.7-3.5v-6.4H38v6.6c0,3.2-1.5,5.3-4.9,5.3
			c-3.4,0-4.9-2.2-4.9-5.3v-6.6"/>
		<path class="st2" d="M42.4,32.6L42.4,32.6c0.6-1.4,1.8-2.2,3.2-2.2c0.6,0,1.3,0.2,1.8,0.6l-1,2c-0.4-0.3-0.8-0.5-1.4-0.5
			c-2.4,0-2.7,2.2-2.7,4.1v5.7h-2.2V30.7h2.2"/>
		<path class="st2" d="M56.5,35.2c-0.3-1.7-1.4-2.9-3.2-2.9c-1.7,0-3,1.2-3.3,2.9 M50,36.8c0,2,1.4,3.8,3.5,3.8
			c1.7,0,2.6-0.9,3.5-2.3l1.9,1.1c-1.1,2-3.1,3.2-5.4,3.2c-3.5,0-5.7-2.7-5.7-6.1c0-3.6,1.9-6.2,5.6-6.2c3.7,0,5.4,2.7,5.4,6.2v0.3
			H50z"/>
		<rect x="21.9" y="27.6" class="st2" width="36.9" height="2.3"/>
		<path class="st2" d="M23.1,32.9c0,0.8-0.7,1.5-1.5,1.5c-0.8,0-1.5-0.7-1.5-1.5c0-0.8,0.7-1.5,1.5-1.5
			C22.4,31.5,23.1,32.1,23.1,32.9"/>
		<path class="st2" d="M13,39.8L11.3,41c1.3,1.7,3,3,4.9,3.9l0.8-2c-1.2-0.5-2.3-1.3-3.2-2.2C13.5,40.4,13.3,40.1,13,39.8 M21.6,44
			c-1.3,0-2.5-0.2-3.7-0.6l-0.8,2c1.4,0.5,2.9,0.8,4.5,0.8h0c0.1,0,0.3,0,0.4,0l-0.1-2.1C21.8,43.9,21.7,44,21.6,44 M13,26.1
			l-1.6-1.4c-1.7,2.1-2.8,4.8-2.9,7.7l2.1,0C10.8,30,11.6,27.8,13,26.1 M10.6,33.3l-2.1,0c0.1,2.6,0.9,4.9,2.2,6.9l1.7-1.2
			C11.4,37.4,10.7,35.4,10.6,33.3 M29.9,25.7l1.6-1.4c-2.3-2.7-5.7-4.4-9.5-4.5v2.1C25.2,22.1,28,23.5,29.9,25.7 M21,21.8v-1.9
			c-3.5,0.2-6.7,1.7-8.9,4.1l1.6,1.4c0.1-0.1,0.1-0.1,0.2-0.2c1.9-1.9,4.4-3.1,7.2-3.2V21.8 M22.9,43.9L23,46c1.3-0.1,2.6-0.5,3.8-1
			l-0.9-1.9C25,43.5,23.9,43.8,22.9,43.9 M28.7,41.4c-0.6,0.5-1.2,0.9-1.9,1.3l0.9,1.9c0.8-0.4,1.6-1,2.3-1.6L28.7,41.4z"/>
		<path class="st2" d="M30.6,48.3c-0.2,0.2-0.4,0.3-0.6,0.3c-0.2,0.1-0.4,0.1-0.6,0.1c-0.3,0-0.6-0.1-0.8-0.2
			c-0.2-0.2-0.3-0.4-0.3-0.6c0-0.1,0-0.3,0.1-0.4c0.1-0.1,0.2-0.2,0.3-0.3C28.9,47,29,47,29.2,47c0.1,0,0.3-0.1,0.5-0.1
			c0.4-0.1,0.7-0.1,0.9-0.2c0-0.1,0-0.1,0-0.1c0-0.2,0-0.4-0.1-0.4c-0.1-0.1-0.3-0.2-0.6-0.2c-0.2,0-0.4,0-0.5,0.1s-0.2,0.2-0.3,0.5
			l-0.5-0.1c0-0.2,0.1-0.4,0.2-0.5c0.1-0.1,0.3-0.2,0.5-0.3c0.2-0.1,0.4-0.1,0.7-0.1c0.3,0,0.5,0,0.6,0.1c0.2,0.1,0.3,0.1,0.4,0.2
			c0.1,0.1,0.1,0.2,0.2,0.4c0,0.1,0,0.2,0,0.5v0.7c0,0.5,0,0.8,0,0.9c0,0.1,0.1,0.3,0.1,0.4h-0.5C30.7,48.5,30.6,48.4,30.6,48.3
			 M30.6,47.1c-0.2,0.1-0.5,0.1-0.8,0.2c-0.2,0-0.4,0.1-0.5,0.1c-0.1,0-0.2,0.1-0.2,0.2c0,0.1-0.1,0.2-0.1,0.2
			c0,0.1,0.1,0.3,0.2,0.3c0.1,0.1,0.3,0.1,0.5,0.1c0.2,0,0.4,0,0.5-0.1c0.2-0.1,0.3-0.2,0.3-0.4c0.1-0.1,0.1-0.3,0.1-0.5V47.1z"/>
		<path class="st2" d="M32,48.6V46h-0.5v-0.4H32v-0.3c0-0.2,0-0.4,0.1-0.5c0.1-0.1,0.1-0.2,0.3-0.3c0.1-0.1,0.3-0.1,0.5-0.1
			c0.1,0,0.3,0,0.5,0.1l-0.1,0.5c-0.1,0-0.2,0-0.3,0c-0.2,0-0.3,0-0.3,0.1c-0.1,0.1-0.1,0.2-0.1,0.4v0.3h0.6V46h-0.6v2.7"/>
		<path class="st2" d="M34.4,48.6l-1.2-3.1h0.5l0.7,1.8c0.1,0.2,0.1,0.4,0.2,0.6c0-0.2,0.1-0.4,0.2-0.6l0.7-1.9H36l-1.2,3.1"/>
		<path class="st2" d="M38.5,48.3c-0.2,0.2-0.4,0.3-0.6,0.3c-0.2,0.1-0.4,0.1-0.6,0.1c-0.3,0-0.6-0.1-0.8-0.2
			c-0.2-0.2-0.3-0.4-0.3-0.6c0-0.1,0-0.3,0.1-0.4c0.1-0.1,0.2-0.2,0.3-0.3C36.8,47,36.9,47,37,47c0.1,0,0.3-0.1,0.5-0.1
			c0.4-0.1,0.7-0.1,0.9-0.2c0-0.1,0-0.1,0-0.1c0-0.2,0-0.4-0.1-0.4c-0.1-0.1-0.3-0.2-0.6-0.2c-0.2,0-0.4,0-0.5,0.1
			c-0.1,0.1-0.2,0.2-0.3,0.5l-0.5-0.1c0-0.2,0.1-0.4,0.2-0.5c0.1-0.1,0.3-0.2,0.5-0.3c0.2-0.1,0.4-0.1,0.7-0.1c0.3,0,0.5,0,0.6,0.1
			c0.2,0.1,0.3,0.1,0.4,0.2c0.1,0.1,0.1,0.2,0.2,0.4c0,0.1,0,0.2,0,0.5v0.7c0,0.5,0,0.8,0,0.9c0,0.1,0.1,0.3,0.1,0.4h-0.5
			C38.5,48.5,38.5,48.4,38.5,48.3 M38.4,47.1c-0.2,0.1-0.5,0.1-0.8,0.2c-0.2,0-0.4,0.1-0.5,0.1c-0.1,0-0.2,0.1-0.2,0.2
			c0,0.1-0.1,0.2-0.1,0.2c0,0.1,0.1,0.3,0.2,0.3c0.1,0.1,0.3,0.1,0.5,0.1c0.2,0,0.4,0,0.5-0.1c0.2-0.1,0.3-0.2,0.3-0.4
			c0.1-0.1,0.1-0.3,0.1-0.5V47.1z"/>
		<rect x="39.7" y="44.4" class="st2" width="0.5" height="4.2"/>
		<path class="st2" d="M41.5,48.6h-0.5v-4.2h0.5v1.5c0.2-0.3,0.5-0.4,0.8-0.4c0.2,0,0.4,0,0.5,0.1c0.2,0.1,0.3,0.2,0.4,0.3
			c0.1,0.1,0.2,0.3,0.3,0.5c0.1,0.2,0.1,0.4,0.1,0.6c0,0.5-0.1,0.9-0.4,1.2c-0.3,0.3-0.6,0.4-0.9,0.4c-0.4,0-0.6-0.2-0.8-0.5
			 M41.5,47.1c0,0.4,0.1,0.6,0.1,0.8c0.2,0.3,0.4,0.4,0.7,0.4c0.2,0,0.4-0.1,0.6-0.3c0.2-0.2,0.2-0.5,0.2-0.9c0-0.4-0.1-0.7-0.2-0.9
			c-0.2-0.2-0.4-0.3-0.6-0.3c-0.2,0-0.4,0.1-0.6,0.3C41.6,46.4,41.5,46.7,41.5,47.1"/>
		<path class="st2" d="M46.4,47.7l0.5,0.1c-0.1,0.3-0.2,0.6-0.5,0.7c-0.2,0.2-0.5,0.3-0.9,0.3c-0.4,0-0.8-0.1-1.1-0.4
			c-0.3-0.3-0.4-0.7-0.4-1.2c0-0.5,0.1-0.9,0.4-1.2c0.3-0.3,0.6-0.4,1-0.4c0.4,0,0.7,0.1,1,0.4c0.3,0.3,0.4,0.7,0.4,1.2
			c0,0,0,0.1,0,0.1h-2.3c0,0.3,0.1,0.6,0.3,0.8c0.2,0.2,0.4,0.3,0.6,0.3c0.2,0,0.4-0.1,0.5-0.1C46.3,48,46.4,47.9,46.4,47.7
			 M44.7,46.8h1.7c0-0.3-0.1-0.5-0.2-0.6c-0.2-0.2-0.4-0.3-0.6-0.3c-0.2,0-0.4,0.1-0.6,0.2C44.8,46.3,44.8,46.5,44.7,46.8"/>
		<path class="st2" d="M47.6,48.6v-4.2h0.5v1.5c0.2-0.3,0.5-0.4,0.9-0.4c0.2,0,0.4,0,0.6,0.1c0.2,0.1,0.3,0.2,0.4,0.4
			c0.1,0.2,0.1,0.4,0.1,0.7v1.9h-0.5v-1.9c0-0.3-0.1-0.4-0.2-0.6C49.3,46,49.2,46,49,46c-0.2,0-0.3,0-0.4,0.1
			c-0.1,0.1-0.2,0.2-0.3,0.3c-0.1,0.1-0.1,0.3-0.1,0.6v1.7"/>
		<path class="st2" d="M53,47.7l0.5,0.1c-0.1,0.3-0.2,0.6-0.5,0.7c-0.2,0.2-0.5,0.3-0.9,0.3c-0.4,0-0.8-0.1-1.1-0.4
			c-0.3-0.3-0.4-0.7-0.4-1.2c0-0.5,0.1-0.9,0.4-1.2c0.3-0.3,0.6-0.4,1-0.4c0.4,0,0.7,0.1,1,0.4c0.3,0.3,0.4,0.7,0.4,1.2
			c0,0,0,0.1,0,0.1h-2.3c0,0.3,0.1,0.6,0.3,0.8c0.2,0.2,0.4,0.3,0.6,0.3c0.2,0,0.4-0.1,0.5-0.1C52.8,48,52.9,47.9,53,47.7
			 M51.3,46.8H53c0-0.3-0.1-0.5-0.2-0.6c-0.2-0.2-0.4-0.3-0.6-0.3c-0.2,0-0.4,0.1-0.6,0.2C51.4,46.3,51.3,46.5,51.3,46.8"/>
		<path class="st2" d="M56.3,47.7l0.5,0.1c-0.1,0.3-0.2,0.6-0.5,0.7c-0.2,0.2-0.5,0.3-0.9,0.3c-0.4,0-0.8-0.1-1.1-0.4
			C54.1,48,54,47.6,54,47.1c0-0.5,0.1-0.9,0.4-1.2c0.3-0.3,0.6-0.4,1-0.4c0.4,0,0.7,0.1,1,0.4c0.3,0.3,0.4,0.7,0.4,1.2
			c0,0,0,0.1,0,0.1h-2.3c0,0.3,0.1,0.6,0.3,0.8c0.2,0.2,0.4,0.3,0.6,0.3c0.2,0,0.4-0.1,0.5-0.1C56.1,48,56.2,47.9,56.3,47.7
			 M54.6,46.8h1.7c0-0.3-0.1-0.5-0.2-0.6c-0.2-0.2-0.4-0.3-0.6-0.3c-0.2,0-0.4,0.1-0.6,0.2C54.7,46.3,54.6,46.5,54.6,46.8"/>
		<path class="st2" d="M57.5,48.6v-3.1h0.5V46c0.1-0.2,0.2-0.4,0.3-0.4c0.1-0.1,0.2-0.1,0.3-0.1c0.2,0,0.4,0.1,0.5,0.2l-0.2,0.5
			c-0.1-0.1-0.3-0.1-0.4-0.1c-0.1,0-0.2,0-0.3,0.1c-0.1,0.1-0.2,0.2-0.2,0.3C58,46.6,58,46.8,58,47v1.6"/>
	</g>
</g>
</svg>
